<svg width="29" height="22" viewBox="0 0 29 22" fill="none" xmlns="http://www.w3.org/2000/svg">
<path d="M1.89575 3.35825H27.3958C28.0594 3.35825 28.6083 2.80943 28.6083 2.14575C28.6083 1.48208 28.0594 0.933252 27.3958 0.933252H1.89575C1.23208 0.933252 0.683252 1.48208 0.683252 2.14575C0.683252 2.80943 1.23208 3.35825 1.89575 3.35825Z" fill="#161215" stroke="#161215" stroke-width="0.3"/>
<path d="M1.89575 12.5665H27.3958C28.0594 12.5665 28.6083 12.0177 28.6083 11.354C28.6083 10.6903 28.0594 10.1415 27.3958 10.1415H1.89575C1.23208 10.1415 0.683252 10.6903 0.683252 11.354C0.683252 12.0177 1.23208 12.5665 1.89575 12.5665Z" fill="#161215" stroke="#161215" stroke-width="0.3"/>
<path d="M1.89575 21.775H27.3958C28.0594 21.775 28.6083 21.2262 28.6083 20.5625C28.6083 19.8988 28.0594 19.35 27.3958 19.35H1.89575C1.23208 19.35 0.683252 19.8988 0.683252 20.5625C0.683252 21.2262 1.23208 21.775 1.89575 21.775Z" fill="#161215" stroke="#161215" stroke-width="0.3"/>
</svg>
